<?xml version="1.0" standalone="no"?>
<!DOCTYPE svg PUBLIC "-//W3C//DTD SVG 20010904//EN"
 "http://www.w3.org/TR/2001/REC-SVG-20010904/DTD/svg10.dtd">
<svg version="1.0" xmlns="http://www.w3.org/2000/svg"
 width="500.000000pt" height="500.000000pt" viewBox="0 0 500.000000 500.000000"
 preserveAspectRatio="xMidYMid meet">

<g transform="translate(0.000000,500.000000) scale(0.100000,-0.100000)"
fill="#000000" stroke="none">
<path d="M0 2500 l0 -2500 2500 0 2500 0 0 2500 0 2500 -2500 0 -2500 0 0
-2500z m2515 1424 c0 -37 -4 -49 -15 -49 -16 0 -27 63 -16 92 12 31 31 6 31
-43z m-343 -121 c15 -15 28 -32 28 -39 0 -28 -23 -25 -56 7 -26 25 -31 36 -23
46 15 18 19 17 51 -14z m706 15 c9 -9 5 -19 -20 -45 -34 -35 -53 -41 -61 -20
-4 11 49 77 63 77 3 0 11 -5 18 -12z m-306 -305 c63 -61 18 -173 -69 -173
-112 0 -147 141 -48 195 39 20 81 12 117 -22z m-502 -73 c0 -17 -7 -20 -50
-20 -43 0 -50 3 -50 20 0 17 7 20 50 20 43 0 50 -3 50 -20z m960 0 c0 -17 -7
-20 -50 -20 -43 0 -50 3 -50 20 0 17 7 20 50 20 43 0 50 -3 50 -20z m-830
-312 c0 -16 -51 -68 -66 -68 -26 0 -25 23 2 51 28 29 64 39 64 17z m657 -10
c27 -25 31 -58 6 -58 -23 0 -63 39 -63 62 0 25 29 23 57 -4z m938 -354 c26
-36 45 -67 43 -68 -41 -33 -119 -86 -125 -86 -15 1 -96 121 -87 129 10 10 118
91 121 91 1 0 22 -30 48 -66z m-247 -45 c23 -10 42 -24 42 -31 0 -7 -11 -37
-25 -67 -22 -47 -28 -52 -48 -46 -12 4 -60 10 -108 12 -111 6 -114 3 -114
-128 0 -83 3 -102 21 -126 39 -52 105 -61 211 -28 20 6 25 1 43 -41 30 -68 24
-85 -35 -108 -60 -23 -192 -27 -249 -7 -210 72 -238 441 -43 556 76 44 220 51
305 14z m-2932 6 c102 -30 149 -126 109 -221 -13 -32 -13 -36 6 -55 61 -61 51
-182 -20 -242 -52 -43 -118 -57 -276 -57 l-142 0 -6 128 c-4 70 -7 197 -7 283
l0 157 48 10 c74 15 232 14 288 -3z m904 -85 l0 -80 69 0 c75 0 81 -5 81 -63
0 -72 -5 -77 -81 -77 l-69 0 0 -48 c0 -68 17 -87 77 -87 26 1 51 -4 55 -10 4
-5 8 -35 8 -66 0 -67 -3 -69 -99 -69 -49 0 -78 6 -111 23 -62 31 -83 71 -88
173 l-4 83 -47 3 -46 3 0 65 0 65 47 3 46 3 -5 58 -6 59 49 15 c27 9 63 18 79
20 17 2 33 5 38 6 4 0 7 -35 7 -79z m430 -6 l0 -74 69 0 69 0 6 -31 c3 -17 3
-49 0 -70 l-7 -39 -68 0 -69 0 0 -48 c0 -69 17 -87 78 -86 48 2 50 1 56 -28 3
-17 6 -48 6 -69 0 -47 -15 -53 -123 -48 -124 7 -176 67 -177 206 l0 72 -47 3
-48 3 -3 68 -3 67 46 0 45 0 0 58 c0 54 2 60 28 72 28 13 122 29 135 23 4 -2
7 -38 7 -79z m2168 3 l3 -77 70 0 70 0 -3 -67 -3 -68 -67 -3 -68 -3 0 -53 c0
-67 15 -82 81 -80 l48 2 7 -64 c3 -36 3 -68 -1 -72 -3 -4 -49 -7 -100 -7 -79
0 -98 3 -121 21 -56 41 -68 69 -74 162 l-5 87 -46 3 c-46 3 -47 4 -53 41 -3
22 -3 53 0 70 6 29 9 31 50 31 l44 0 0 59 0 59 43 16 c41 15 92 25 112 21 6
-1 11 -36 13 -78z m-2980 -84 c60 -28 102 -106 102 -189 l0 -43 -137 -3 -138
-3 24 -24 c22 -22 29 -23 117 -19 l93 5 11 -30 c5 -16 10 -42 10 -58 0 -23 -6
-30 -37 -40 -21 -7 -74 -13 -118 -13 -144 -2 -222 49 -245 159 -13 65 -2 139
31 191 50 82 186 114 287 67z m1327 -8 c52 -30 83 -87 91 -164 l7 -61 -137 0
c-82 0 -136 -4 -136 -10 0 -5 11 -17 25 -26 21 -14 42 -16 111 -11 95 5 98 4
110 -71 l6 -41 -43 -12 c-62 -18 -205 -16 -250 4 -20 9 -50 32 -67 51 -86 98
-58 286 51 343 73 37 165 36 232 -2z m305 0 l0 -24 25 24 c19 20 34 25 75 25
l51 0 -3 -72 -3 -72 -65 -1 -65 0 -3 -135 c-2 -92 -6 -137 -15 -142 -15 -10
-134 -10 -140 0 -3 4 -7 95 -8 202 l-4 195 55 12 c88 18 100 17 100 -12z
m1040 -185 l0 -210 -23 -5 c-13 -4 -48 -5 -78 -3 l-54 3 -6 195 c-3 107 -3
198 1 202 5 7 94 25 138 27 l22 1 0 -210z m686 74 l38 -137 14 34 c8 19 23 79
35 134 11 55 21 102 23 104 6 6 144 -21 150 -30 3 -5 -7 -48 -21 -97 -69 -223
-141 -350 -246 -427 -81 -59 -112 -65 -151 -28 -16 15 -36 40 -44 55 l-14 27
70 37 c39 20 70 40 70 44 0 4 -29 92 -65 195 -36 104 -62 192 -58 196 9 9 93
26 134 28 26 1 28 -4 65 -135z"/>
<path d="M2480 3503 c-41 -14 -54 -78 -22 -106 40 -36 102 -9 102 44 0 44 -41
75 -80 62z"/>
<path d="M450 2555 l0 -45 64 0 c70 0 83 11 66 54 -10 28 -28 36 -86 36 l-44
0 0 -45z"/>
<path d="M450 2335 l0 -45 44 0 c81 0 106 9 106 39 0 41 -18 51 -87 51 l-63 0
0 -45z"/>
<path d="M971 2441 c-17 -30 -15 -31 50 -31 l61 0 -14 23 c-21 31 -82 36 -97
8z"/>
<path d="M2292 2448 c-26 -26 -13 -38 43 -38 38 0 55 4 55 13 0 22 -22 37 -55
37 -17 0 -36 -5 -43 -12z"/>
</g>
</svg>
